<?xml version="1.0" standalone="no"?>
<!DOCTYPE svg PUBLIC "-//W3C//DTD SVG 20010904//EN"
 "http://www.w3.org/TR/2001/REC-SVG-20010904/DTD/svg10.dtd">
<svg version="1.0" xmlns="http://www.w3.org/2000/svg"
 width="1000.000000pt" height="1000.000000pt" viewBox="0 0 1000.000000 1000.000000"
 preserveAspectRatio="xMidYMid meet">
<metadata>
Created by potrace 1.16, written by Peter Selinger 2001-2019
</metadata>
<g transform="translate(0.000000,1000.000000) scale(0.100000,-0.100000)"
fill="#000000" stroke="none">
<path d="M3609 9819 c-11 -11 -19 -23 -19 -29 0 -5 -11 -12 -24 -16 -14 -3
-29 -18 -36 -35 -7 -16 -19 -29 -26 -29 -33 0 -48 -50 -52 -169 -3 -107 0
-130 38 -301 23 -102 44 -205 47 -230 5 -42 3 -47 -21 -58 -14 -6 -26 -18 -26
-27 0 -8 23 -102 50 -208 42 -159 53 -220 65 -359 17 -197 34 -248 106 -332
121 -141 169 -234 213 -409 19 -73 61 -203 95 -290 34 -86 64 -170 67 -186 5
-26 -4 -37 -124 -144 -71 -64 -142 -133 -157 -152 -14 -20 -39 -75 -54 -123
l-27 -87 -55 -5 c-63 -6 -86 -20 -106 -67 -32 -77 -11 -123 54 -123 56 0 64
-16 61 -115 l-3 -89 -45 -8 c-27 -4 -52 -16 -62 -29 -26 -31 -34 -88 -17 -118
12 -22 23 -26 68 -29 l54 -3 -6 -91 -6 -91 -85 -81 c-96 -93 -123 -137 -132
-227 -5 -55 -3 -68 13 -88 12 -14 26 -22 35 -19 8 3 34 39 58 80 53 89 148
186 211 215 96 45 216 36 316 -23 55 -32 55 -50 4 -152 -53 -107 -57 -131 -30
-189 13 -28 27 -89 34 -148 7 -55 20 -161 30 -235 10 -77 18 -214 18 -320 2
-212 2 -214 -88 -312 -81 -88 -105 -183 -85 -338 18 -135 16 -147 -33 -240
-24 -47 -47 -101 -51 -121 -3 -20 -24 -65 -47 -100 -61 -98 -83 -148 -160
-369 -39 -113 -86 -236 -104 -275 -40 -85 -39 -82 -70 -230 -31 -152 -58 -206
-158 -313 -107 -116 -141 -188 -160 -338 l-15 -110 -75 -126 c-42 -69 -129
-228 -193 -354 l-117 -229 -113 -115 c-67 -69 -122 -135 -137 -165 -24 -49
-142 -319 -167 -382 -6 -18 -35 -50 -64 -72 -71 -55 -111 -100 -124 -138 -6
-18 -24 -52 -40 -75 -41 -60 -72 -124 -72 -147 0 -16 9 -21 44 -26 51 -8 682
-3 690 5 3 3 0 25 -5 49 -12 54 0 71 50 71 45 0 64 14 82 60 7 19 45 93 85
165 39 72 86 162 105 200 20 39 98 170 175 293 76 122 177 286 223 365 46 78
134 219 196 312 61 94 133 208 159 255 27 47 85 135 130 195 45 61 122 169
171 240 202 295 727 1035 779 1099 13 16 29 25 35 22 29 -18 214 -306 641
-1000 84 -136 182 -288 217 -337 78 -109 128 -200 188 -344 53 -127 144 -302
275 -530 l91 -159 -20 -381 c-11 -209 -23 -417 -27 -463 l-6 -83 39 3 38 3 7
165 c13 331 30 625 37 638 5 9 59 -79 148 -240 169 -304 238 -421 256 -436 10
-8 32 -5 87 13 58 18 76 20 78 10 3 -12 -20 -114 -34 -150 -5 -13 47 -15 474
-15 537 0 572 2 572 34 0 32 -26 63 -63 75 -17 6 -103 22 -189 36 -210 34
-398 100 -398 140 0 7 -10 21 -21 29 -13 9 -19 21 -16 30 4 9 -12 53 -34 98
-22 46 -51 121 -65 168 -29 94 -110 271 -179 391 -24 42 -87 170 -140 283 -52
114 -162 341 -244 504 l-148 297 43 670 c24 369 44 680 44 693 0 18 6 22 30
22 39 0 50 23 50 103 0 60 2 65 23 71 31 7 104 65 127 100 26 40 44 172 36
262 -11 118 -41 202 -89 248 l-41 39 3 71 c2 58 8 79 31 114 36 55 45 93 30
137 -12 38 -59 79 -100 90 -14 3 -45 2 -68 -4 l-43 -9 -26 41 c-63 101 -102
201 -123 322 -25 144 -38 175 -120 285 -115 155 -105 106 -102 497 l3 342 -25
48 c-36 72 -108 155 -179 209 -34 26 -94 78 -132 114 -63 60 -77 69 -130 79
-33 7 -77 17 -97 22 -41 11 -111 60 -140 100 -19 25 -19 26 7 115 18 63 27
120 30 194 2 58 9 137 14 176 8 55 7 93 -4 169 -26 171 -48 219 -140 303 -67
61 -114 77 -202 68 -49 -5 -75 -2 -120 14 -31 11 -68 20 -80 20 -15 0 -51 -26
-100 -72 -166 -158 -171 -166 -180 -285 -3 -40 -6 -73 -7 -73 -1 0 -25 9 -54
20 -29 11 -75 20 -102 20 -63 0 -106 17 -148 60 -48 48 -59 76 -82 206 -24
137 -55 210 -102 239 -27 17 -39 37 -70 124 -21 58 -71 175 -113 262 -60 127
-83 189 -115 316 -72 277 -77 293 -105 293 -14 0 -29 8 -34 19 -15 28 -101
273 -101 288 0 7 13 27 29 45 37 41 95 119 110 146 14 27 -3 166 -25 200 -8
13 -30 30 -47 37 -18 7 -40 22 -50 33 -24 27 -122 27 -148 1z m2179 -4249 c51
-160 56 -190 57 -365 1 -199 -16 -155 175 -465 144 -232 210 -351 210 -379 0
-34 64 -117 181 -237 112 -114 119 -124 119 -161 0 -34 4 -42 27 -52 l27 -13
-23 -18 -24 -18 21 -36 c27 -45 27 -78 7 -396 -21 -313 -73 -1014 -81 -1070
l-6 -45 -35 40 c-44 50 -91 146 -97 199 -32 265 -39 292 -123 460 -60 120
-125 284 -193 491 -23 72 -82 226 -131 343 -110 264 -129 325 -136 432 -5 79
-9 91 -56 175 -116 203 -120 227 -72 400 25 87 28 115 26 220 -1 66 3 212 9
325 l10 205 31 28 c39 36 48 28 77 -63z"/>
</g>
</svg>
