<?xml version="1.0" encoding="UTF-8" standalone="no"?>
<svg
   version="1.0"
   width="1000.000000pt"
   height="1000.000000pt"
   viewBox="0 0 1000.000000 1000.000000"
   preserveAspectRatio="xMidYMid meet"
   id="svg1"
   sodipodi:docname="freddy-silhouette-darkbkg.svg"
   inkscape:version="1.3.2 (1:1.3.2+202311252150+091e20ef0f)"
   xmlns:inkscape="http://www.inkscape.org/namespaces/inkscape"
   xmlns:sodipodi="http://sodipodi.sourceforge.net/DTD/sodipodi-0.dtd"
   xmlns="http://www.w3.org/2000/svg"
   xmlns:svg="http://www.w3.org/2000/svg">
  <defs
     id="defs1" />
  <sodipodi:namedview
     id="namedview1"
     pagecolor="#aaaaaa"
     bordercolor="#000000"
     borderopacity="0.25"
     inkscape:showpageshadow="2"
     inkscape:pageopacity="0.0"
     inkscape:pagecheckerboard="0"
     inkscape:deskcolor="#d1d1d1"
     inkscape:document-units="pt"
     inkscape:zoom="0.882"
     inkscape:cx="666.09977"
     inkscape:cy="666.66667"
     inkscape:window-width="2490"
     inkscape:window-height="1376"
     inkscape:window-x="0"
     inkscape:window-y="0"
     inkscape:window-maximized="1"
     inkscape:current-layer="g1" />
  <metadata
     id="metadata1">
Created by potrace 1.16, written by Peter Selinger 2001-2019
</metadata>
  <g
     transform="translate(0.000000,1000.000000) scale(0.100000,-0.100000)"
     fill="#000000"
     stroke="none"
     id="g1">
    <path
       style="display:inline;fill:#ffffff;stroke:#ffffff;stroke-width:1.13379;stroke-opacity:1"
       d="m 286.33184,1318.968 c -4.64901,-0.2654 -9.07582,-0.9997 -9.83736,-1.6317 -1.87508,-1.5563 -0.22041,-6.184 5.8337,-16.3159 2.60829,-4.3651 6.46608,-11.2088 8.57289,-15.2084 2.81449,-5.3431 6.06624,-9.1796 12.25916,-14.4636 4.63573,-3.9554 9.15064,-8.2225 10.03314,-9.4825 0.8825,-1.2599 5.16219,-10.5676 9.51043,-20.6838 15.70345,-36.5339 16.2078,-37.3689 33.13559,-54.8614 15.13768,-15.6426 15.20377,-15.7342 23.97928,-33.2595 11.71343,-23.3925 24.06933,-46.2798 34.04678,-63.0661 8.08653,-13.605 8.19015,-13.8818 10.07521,-26.9074 3.23525,-22.3555 6.26088,-28.9033 21.55519,-46.6478 12.87061,-14.9325 16.64476,-22.72251 21.66925,-44.72632 2.25762,-9.8868 5.68066,-21.24436 7.85933,-26.07709 4.12557,-9.15127 7.32844,-17.58493 17.24393,-45.40592 7.35182,-20.62781 11.11356,-29.18338 17.98446,-40.90327 2.77354,-4.73092 6.02963,-11.46991 7.23574,-14.97554 1.20612,-3.50564 4.38228,-10.86279 7.05813,-16.34922 5.45347,-11.1815 5.80448,-14.56693 3.9144,-37.75311 -1.54261,-18.92345 1.36206,-27.0459 15.69891,-43.8996 2.76871,-3.25476 5.56966,-7.8466 6.22433,-10.20408 1.5274,-5.50017 1.52806,-39.94568 10e-4,-57.57432 -1.98731,-22.94335 -6.66566,-54.84906 -9.02813,-61.57072 -3.23265,-9.19747 -2.84417,-12.59878 2.86039,-25.04374 5.76723,-12.58168 6.28885,-16.7506 2.53689,-20.27538 -6.0819,-5.71366 -22.62783,-10.08923 -33.04288,-8.7382 -13.97714,1.8131 -27.94101,12.78883 -40.71538,32.00265 -3.83811,5.77287 -7.54417,10.49614 -8.23566,10.49614 -0.69151,0 -2.17099,-1.00964 -3.28775,-2.24363 -1.67497,-1.85084 -1.93226,-3.61598 -1.4696,-10.0823 0.81505,-11.39139 3.98363,-16.95538 17.37379,-30.50817 l 11.5151,-11.65495 0.7458,-12.27959 0.74582,-12.27959 -7.04889,-0.63918 c -8.25758,-0.74877 -9.97892,-2.37793 -9.97892,-9.44457 0,-5.93217 4.06016,-11.27248 9.38439,-12.34324 7.59299,-1.52703 7.34237,-1.20198 8.17446,-10.60208 0.48612,-5.49144 0.29995,-10.60897 -0.49306,-13.55396 -1.31322,-4.87695 -2.20121,-5.4462 -9.58404,-6.14402 -1.97409,-0.18658 -4.1637,-1.48763 -5.47629,-3.25391 -1.89966,-2.55629 -2.02222,-3.55517 -0.93265,-7.6015 1.74728,-6.48893 6.13108,-11.35226 10.9003,-12.09267 2.14495,-0.33299 5.64946,-0.87688 7.7878,-1.20864 3.65627,-0.56725 4.03692,-1.05697 6.38925,-8.21995 5.98883,-18.23631 7.16725,-19.9021 26.88309,-38.00116 10.05279,-9.22842 18.56355,-17.67927 18.9128,-18.77966 0.76085,-2.39721 -0.52478,-6.60951 -9.04454,-29.63413 -3.57653,-9.66553 -8.93598,-25.87338 -11.90989,-36.01745 -7.67221,-26.17002 -12.63184,-36.04546 -27.17931,-54.1186 -3.51356,-4.36508 -7.20156,-9.25157 -8.19558,-10.85887 -3.35011,-5.41704 -5.47282,-15.11976 -7.67015,-35.0595 -2.41587,-21.92283 -3.5094,-27.75363 -10.18439,-54.30339 -2.51071,-9.98631 -4.56491,-19.14162 -4.56491,-20.34512 0,-1.20352 1.27551,-3.02395 2.83447,-4.04541 3.98303,-2.60979 3.74919,-5.77335 -2.50634,-33.90735 -5.10823,-22.974084 -5.34034,-24.785295 -5.33031,-41.59374 0.0112,-18.804732 0.90077,-23.022586 5.27587,-25.016017 1.42274,-0.648242 3.45515,-2.691645 4.51648,-4.540895 1.06132,-1.84925 2.84118,-3.71043 3.95524,-4.135957 1.11406,-0.425526 3.61641,-2.457485 5.5608,-4.515464 3.11166,-3.293455 4.23653,-3.74178 9.38841,-3.74178 4.85319,0 7.21873,0.814513 13.84608,4.767539 4.58018,2.731956 8.68977,6.115167 9.62507,7.923818 0.89769,1.735954 2.17648,7.200808 2.84174,12.144123 1.47326,10.947127 0.95691,12.273682 -10.34141,26.567972 -4.35603,5.511127 -7.92007,10.962335 -7.92007,12.113795 0,2.411301 8.13844,26.062366 11.95637,34.746376 1.90424,4.33125 3.2688,5.95804 5.23063,6.23583 3.74086,0.52969 5.6367,5.09023 11.70358,28.15361 7.24109,27.52708 8.80824,32.06283 18.30103,52.96792 4.59226,10.1131 10.94269,24.90902 14.11206,32.87982 4.82511,12.13485 6.56852,15.23781 10.71717,19.07466 5.98197,5.53238 8.56986,11.25366 11.8077,26.10431 5.49965,25.22468 5.58663,25.44986 12.50746,32.37768 6.67265,6.6794 12.18308,8.87735 22.48398,8.96823 2.30774,0.0204 7.00202,1.0241 10.43172,2.23055 3.42971,1.20645 6.80342,2.21021 7.49714,2.23056 0.77286,0.0227 1.57108,-3.78061 2.06119,-9.82103 0.43994,-5.42193 1.50152,-11.53732 2.35909,-13.58975 1.85606,-4.44219 20.27675,-23.77633 28.18146,-29.5789 l 5.5801,-4.09618 9.75688,2.51394 c 6.5437,1.68605 13.03599,2.5042 19.71394,2.48434 12.36588,-0.0368 15.8624,1.35148 24.81061,9.85066 11.4227,10.8495 14.24642,16.93304 17.51046,37.72519 1.58428,10.09191 1.67633,14.12345 0.60837,26.644 -0.69211,8.11405 -1.57892,19.08955 -1.97071,24.39001 -0.39178,5.30045 -1.93158,14.36296 -3.42177,20.13889 -3.63605,14.09319 -3.53421,15.31751 1.71026,20.56198 6.40608,6.40608 13.06945,9.84808 23.35808,12.06575 12.01419,2.58961 13.49205,3.43857 28.20751,16.20389 19.51796,16.93139 29.31558,27.18002 34.51381,36.10258 l 4.739,8.13433 0.0498,45.15365 c 0.038,34.44562 0.40505,46.1487 1.54788,49.34953 0.82397,2.30772 4.50056,8.2866 8.17019,13.2864 13.98113,19.04897 15.17948,21.72537 20.21795,45.1547 3.37645,15.70081 7.32633,26.21163 14.19467,37.77278 l 4.72178,7.94792 8.14525,-0.71653 c 7.34497,-0.64613 8.52491,-0.45517 12.00927,1.94362 5.35461,3.68635 8.1068,7.74995 8.77915,12.96239 0.46671,3.61828 -0.21369,5.90141 -3.68742,12.37349 -3.69781,6.88956 -4.3265,9.1707 -4.76591,17.29253 l -0.50616,9.35602 4.77847,5.18404 c 5.6396,6.11825 8.64388,12.45455 10.8573,22.89906 2.95385,13.93844 1.5962,34.56777 -2.84834,43.27978 -2.0556,4.02931 -13.08765,13.66658 -15.6445,13.66658 -3.21385,0 -4.79485,3.68193 -4.79485,11.16657 0,8.64801 -1.96958,12.64295 -6.23321,12.64295 -1.48679,0 -3.06882,0.59149 -3.51561,1.31442 -0.4468,0.72293 -3.45169,42.43211 -6.67754,92.68708 l -5.86517,91.37269 13.2739,26.644 c 7.30065,14.6541 19.48621,39.6541 27.07906,55.5555 7.59283,15.9014 21.70282,44.7279 31.35553,64.059 10.31952,20.6664 19.82526,41.4536 23.07186,50.4535 3.0368,8.4183 7.34757,19.6428 9.57948,24.9433 2.2319,5.3004 4.06735,10.451 4.07875,11.4456 0.0114,0.9946 1.04116,2.7318 2.28832,3.8605 1.24717,1.1287 2.26758,2.7311 2.26758,3.561 0,4.7684 20.31078,12.2804 47.17108,17.4465 33.2795,6.4007 34.2014,6.6487 36.7535,9.8933 3.731,4.7432 2.6051,7.5085 -3.4258,8.4143 -7.3102,1.0979 -128.39765,1.0818 -130.1296,-0.017 -1.16413,-0.7387 -1.1286,-2.2224 0.18278,-7.6357 3.08461,-12.7329 3.10865,-12.9697 1.38337,-13.6317 -0.89932,-0.3451 -5.40868,0.4314 -10.02081,1.7255 -4.61213,1.2942 -8.99724,2.3531 -9.74469,2.3531 -1.90732,0 -6.87965,-8.0796 -27.08801,-44.0152 -25.42864,-45.2187 -29.74706,-51.526 -29.83145,-43.5699 -0.0182,1.7149 -0.49287,9.4955 -1.05484,17.2903 -0.56197,7.7948 -1.58838,28.458 -2.28091,45.9183 -0.69251,17.4604 -1.52461,33.9144 -1.84909,36.5647 -0.57504,4.6967 -0.6963,4.8186 -4.79493,4.8186 h -4.20497 l 0.90828,-12.7551 c 0.49956,-7.0154 2.07955,-34.6939 3.51108,-61.508 l 2.60279,-48.7528 -13.47665,-23.8095 c -13.47431,-23.8054 -28.32508,-52.9081 -41.10529,-80.553 -4.05701,-8.7757 -11.61666,-21.9851 -18.78597,-32.8257 -14.30842,-21.6357 -24.83409,-38.2595 -50.6935,-80.06358 -42.55474,-68.79353 -62.7462,-99.64166 -65.21986,-99.64166 -0.60562,0 -2.69788,1.69306 -4.64948,3.76236 -4.03461,4.27792 -41.48296,56.63451 -86.5132,120.95419 -16.80797,24.00789 -35.23858,50.20929 -40.95692,58.22529 -5.71832,8.016 -13.03769,18.9854 -16.26526,24.3764 -3.22757,5.3911 -12.24722,19.7509 -20.04367,31.9108 -7.79645,12.1598 -22.42049,35.6292 -32.49786,52.1542 -10.07736,16.5249 -24.09508,39.4841 -31.15047,51.0204 -11.97266,19.5764 -21.18941,36.2 -37.71704,68.0272 -3.72395,7.1712 -7.50049,13.8675 -8.39232,14.8805 -0.89182,1.0131 -3.94059,2.1034 -6.77505,2.4229 -2.83445,0.3195 -5.72756,1.1549 -6.42912,1.8565 -1.3184,1.3183 -1.44157,8.7622 -0.20924,12.645 0.66414,2.0925 0.0803,2.2087 -11.09654,2.2087 -6.48867,0 -23.99754,0.1927 -38.90861,0.4283 -14.91106,0.2356 -30.91476,0.2112 -35.56377,-0.054 z m 578.66154,-299.4102 c 2.46315,-19.1226 12.11908,-156.67685 12.35616,-176.02039 0.18506,-15.10066 -0.002,-16.78335 -2.29027,-20.65595 l -2.49173,-4.21603 2.77518,-2.18297 c 3.53145,-2.77783 3.48956,-3.12965 -0.62617,-5.25797 -2.89664,-1.49791 -3.40136,-2.41464 -3.40136,-6.17795 0,-5.19795 -0.92827,-6.44315 -18.86745,-25.30934 -12.3683,-13.00744 -20.81509,-24.01556 -20.81509,-27.12686 0,-4.06048 -8.89013,-20.00431 -34.01326,-61.00036 -7.06965,-11.53628 -13.85314,-23.52608 -15.07444,-26.64399 -1.83139,-4.6755 -2.37175,-9.94073 -3.08345,-30.04536 -0.84143,-23.76933 -0.96772,-24.71526 -5.07105,-37.98185 -2.31447,-7.483 -4.68547,-14.4983 -5.26889,-15.58957 -1.49019,-2.78738 -4.76754,-2.46763 -8.71009,0.8498 -3.11425,2.62048 -3.42571,3.58124 -4.13497,12.75511 -0.42189,5.45664 -1.20543,25.73749 -1.74123,45.06856 -0.91649,33.06662 -1.15671,35.8186 -4.05745,46.48526 -1.89597,6.97187 -3.12738,14.48339 -3.19779,19.50632 -0.11345,8.09388 -0.0244,8.34752 9.75084,27.77778 9.66413,19.20938 9.8911,19.84803 11.12869,31.31342 1.53941,14.26158 3.36195,19.94143 18.43672,57.4569 6.5149,16.21315 15.02637,38.66213 18.9144,49.88662 8.40416,24.26234 16.5963,45.07274 21.943,55.74158 10.96482,21.87928 13.09776,28.75866 16.63995,53.66885 1.78699,12.56696 3.14643,18.17009 5.77051,23.78409 3.4053,7.2854 11.83793,19.2998 13.54603,19.2998 0.48924,0 1.20168,-2.4235 1.58321,-5.3855 z"
       id="path2"
       transform="matrix(7.5,0,0,-7.5,0,10000)" />
  </g>
</svg>
