<?xml version="1.0" standalone="no"?>
<!DOCTYPE svg PUBLIC "-//W3C//DTD SVG 20010904//EN"
 "http://www.w3.org/TR/2001/REC-SVG-20010904/DTD/svg10.dtd">
<svg version="1.0" xmlns="http://www.w3.org/2000/svg"
 width="300.000000pt" height="243.000000pt" viewBox="0 0 300.000000 243.000000"
 preserveAspectRatio="xMidYMid meet">
<metadata>
Created by potrace 1.10, written by Peter Selinger 2001-2011
</metadata>
<g transform="translate(0.000000,243.000000) scale(0.100000,-0.100000)"
fill="#000000" stroke="none">
<path d="M1037 2376 c-35 -29 -88 -67 -118 -83 -139 -75 -237 -150 -385 -298
-82 -82 -196 -206 -253 -273 -56 -68 -142 -160 -192 -205 -49 -44 -89 -85 -89
-90 0 -5 19 -6 45 -3 25 4 45 5 45 2 0 -3 -21 -20 -47 -37 l-47 -33 29 -8 c72
-19 164 35 374 220 34 30 61 52 61 49 0 -3 -25 -32 -55 -64 -30 -32 -55 -61
-55 -64 0 -3 -44 -46 -97 -94 -54 -49 -100 -93 -102 -98 -2 -6 19 -8 53 -5
l56 5 -22 -24 c-16 -18 -19 -26 -10 -35 15 -15 77 12 152 67 57 42 117 72 126
62 3 -3 -2 -19 -10 -36 -17 -32 -21 -71 -8 -71 5 0 19 14 32 32 l24 32 7 -27
c5 -18 2 -38 -8 -58 -14 -28 -14 -35 2 -74 19 -52 20 -58 6 -63 -6 -2 -11 3
-11 12 0 9 -4 16 -10 16 -15 0 -12 -17 6 -45 9 -14 25 -25 35 -25 11 0 19 -4
19 -9 0 -5 8 -17 17 -27 10 -9 17 -26 18 -38 0 -13 8 -22 20 -25 11 -2 30 -14
42 -27 l21 -23 -27 -95 c-23 -79 -35 -103 -70 -141 -23 -26 -49 -61 -56 -79
-9 -22 -27 -38 -55 -51 -38 -17 -43 -17 -75 -2 -19 9 -35 20 -36 24 -7 82 -6
85 67 164 40 42 77 86 83 98 29 53 -16 124 -110 172 -35 17 -40 24 -35 45 4
14 2 24 -4 24 -5 0 -10 9 -10 19 0 49 -98 121 -165 121 -32 0 -35 -2 -35 -30
0 -21 5 -30 16 -30 8 0 12 4 9 10 -3 5 1 10 10 10 8 0 20 -12 25 -26 13 -33
13 -32 -12 -36 -26 -3 -36 -34 -18 -52 9 -8 14 -8 17 2 3 9 16 1 37 -22 23
-26 52 -42 111 -61 88 -29 135 -65 135 -103 0 -30 -58 -97 -117 -134 -65 -41
-79 -95 -46 -176 14 -32 28 -47 60 -63 56 -27 125 -30 151 -6 20 18 20 18 27
-2 6 -20 -8 -85 -22 -107 -5 -6 -18 -16 -31 -23 -17 -9 -21 -17 -16 -37 4 -14
2 -35 -4 -47 -18 -36 -29 -90 -25 -120 5 -36 -15 -35 -50 1 -25 26 -26 31 -16
61 12 35 7 107 -9 123 -14 14 -52 -27 -64 -68 -8 -29 -5 -39 17 -68 14 -19 33
-37 42 -40 9 -4 14 -9 11 -11 -3 -3 -35 9 -72 26 -76 36 -103 35 -165 -7 -42
-27 -61 -25 -61 7 0 24 25 25 35 1 6 -16 7 -16 17 1 15 28 2 49 -29 45 -25 -3
-28 -7 -31 -45 -3 -43 2 -48 36 -44 9 2 12 -4 7 -18 -8 -27 22 -71 49 -71 12
0 35 13 50 29 22 23 27 36 22 55 -12 49 -86 43 -86 -7 0 -16 3 -18 12 -9 21
21 50 15 46 -9 -8 -55 -70 -48 -76 8 -7 69 87 90 183 41 28 -14 65 -29 83 -33
18 -3 39 -14 48 -23 17 -16 104 -25 104 -10 0 4 10 7 23 7 12 -1 42 8 67 19
25 12 56 22 70 22 14 0 39 8 55 18 33 20 65 34 65 28 0 -2 -15 -13 -33 -25
-17 -11 -25 -21 -17 -21 11 0 11 -3 2 -12 -17 -17 -15 -33 3 -18 8 7 15 19 15
26 0 8 5 14 10 14 27 0 -14 -67 -44 -72 -24 -5 -25 -4 -10 23 16 32 17 39 6
39 -5 0 -19 -19 -32 -42 l-23 -41 44 6 c50 7 79 35 79 77 0 31 17 48 78 77 32
16 42 17 38 7 -18 -43 -18 -49 -2 -30 9 11 16 28 16 38 0 13 8 18 27 18 l27 0
-39 -40 c-21 -21 -42 -37 -46 -34 -4 2 -13 -4 -18 -15 -8 -14 -7 -20 4 -24 8
-4 33 15 63 47 26 30 58 57 70 60 19 6 25 2 37 -28 8 -19 32 -47 52 -63 21
-15 45 -35 53 -44 8 -9 31 -22 49 -28 29 -9 37 -9 50 5 12 12 13 18 4 21 -55
20 -203 191 -174 201 6 2 20 11 32 21 27 21 18 61 -13 61 -11 0 -29 11 -39 24
-11 14 -28 28 -39 31 -15 5 -20 15 -20 45 0 21 -7 45 -15 54 -20 20 -19 23 11
30 25 7 26 9 20 53 -9 67 -29 93 -71 93 -19 0 -35 -4 -35 -9 0 -5 -9 -13 -21
-16 -11 -4 -26 -19 -32 -33 -6 -15 -19 -33 -27 -39 -12 -10 -12 -14 -2 -21 9
-6 11 -18 7 -35 -4 -15 -4 -35 1 -44 6 -13 9 -4 13 31 4 27 12 51 19 54 6 2
12 -3 12 -12 0 -22 12 -20 33 4 24 29 40 25 34 -8 -4 -19 1 -34 16 -50 14 -16
20 -33 19 -57 -2 -31 2 -38 33 -56 19 -12 35 -25 35 -31 0 -5 14 -14 30 -19
17 -6 30 -15 30 -19 0 -15 -51 -49 -66 -43 -21 8 -17 23 5 23 11 0 23 5 26 10
3 6 -1 10 -10 10 -8 0 -20 11 -26 24 -11 24 -44 40 -61 30 -4 -3 -8 -18 -8
-35 0 -29 -13 -39 -25 -18 -11 17 4 59 21 59 10 0 14 6 11 14 -3 8 -11 32 -18
55 -12 39 -29 56 -29 27 0 -7 -7 -19 -15 -26 -8 -7 -15 -22 -15 -34 1 -19 2
-18 16 7 8 15 19 27 24 27 16 0 12 -46 -7 -78 -22 -38 -13 -58 41 -84 25 -12
43 -25 40 -30 -3 -4 6 -8 20 -8 18 0 30 -9 42 -31 21 -42 89 -114 131 -140 41
-26 38 -33 -7 -18 -35 13 -125 96 -154 143 -17 26 -22 28 -66 24 -52 -5 -80 5
-80 28 0 16 5 15 85 -2 20 -4 20 -4 0 5 -11 5 -35 15 -52 21 -31 12 -33 15
-34 64 -1 40 -3 46 -9 26 -8 -25 -8 -24 -9 5 0 17 6 51 13 77 13 40 13 49 0
65 -13 17 -14 16 -9 -8 4 -14 -1 -45 -9 -70 -9 -24 -16 -65 -16 -91 0 -27 -4
-48 -10 -48 -5 0 -10 6 -10 13 0 6 -9 1 -20 -13 -11 -14 -18 -18 -15 -9 7 18
-26 23 -37 5 -14 -20 -8 -29 10 -15 9 7 6 1 -7 -14 -25 -27 -38 -36 -26 -17 3
6 2 10 -4 10 -5 0 -13 -4 -16 -10 -3 -5 -16 -15 -28 -21 -13 -7 -4 8 23 36
l45 47 -55 -41 c-30 -22 -59 -41 -65 -41 -5 1 0 9 13 18 13 9 38 30 55 45 l32
28 -42 -25 c-43 -26 -113 -48 -83 -27 8 6 41 25 72 42 32 17 64 42 73 55 8 13
24 24 35 24 21 0 78 45 69 54 -3 4 -17 -3 -32 -14 -14 -11 -31 -20 -38 -20 -7
0 -22 -8 -33 -19 -12 -10 -32 -22 -46 -26 -25 -8 -25 -7 -7 13 39 44 -31 35
-96 -12 -19 -14 -23 -22 -15 -27 8 -5 3 -11 -15 -18 -15 -6 -30 -17 -33 -26
-3 -8 -10 -12 -15 -9 -12 7 -35 -47 -44 -103 -6 -37 -4 -43 12 -44 16 0 16 -1
-2 -8 -11 -5 -25 -4 -32 1 -9 7 -13 7 -13 -1 0 -6 11 -17 25 -23 39 -18 27
-40 -23 -43 l-42 -3 4 61 c2 34 11 79 20 101 9 21 13 49 10 62 -4 17 -2 24 8
24 14 0 49 41 60 70 3 8 2 41 -2 73 -5 32 -5 71 0 87 5 17 5 30 0 30 -5 0 -11
-15 -15 -33 -9 -43 -48 -82 -84 -85 -16 -1 -50 7 -75 18 -39 16 -50 27 -66 66
-29 66 -13 115 47 151 23 13 59 44 79 66 21 24 27 29 16 12 -11 -16 -46 -54
-76 -84 -53 -51 -56 -56 -56 -103 0 -66 30 -98 92 -98 55 0 78 17 116 82 16
29 43 66 60 81 22 21 37 53 58 123 17 55 34 94 41 94 7 0 13 -4 13 -9 0 -4 12
-8 28 -7 19 1 30 -6 37 -22 5 -12 16 -20 22 -17 7 2 13 0 13 -5 0 -6 6 -10 13
-10 7 0 18 -9 25 -20 17 -27 30 -25 38 6 l7 26 21 -22 21 -21 -24 -20 c-13
-10 -20 -19 -17 -19 4 0 2 -9 -4 -20 -6 -11 -19 -20 -30 -20 -10 0 -22 -4 -25
-10 -3 -5 -14 -10 -24 -10 -22 0 -104 -44 -121 -65 -9 -11 -7 -26 9 -70 12
-31 21 -59 21 -64 0 -12 -72 -31 -115 -31 l-38 0 23 -25 c28 -30 35 -31 86 -5
l39 19 -50 -5 c-46 -4 -44 -3 25 16 41 11 78 24 83 29 5 5 26 6 48 4 23 -4 39
-2 39 5 0 16 -73 20 -102 5 -27 -13 -28 -13 -28 12 0 15 -4 35 -10 45 -6 12
-6 28 1 48 10 29 53 55 129 77 30 9 60 34 60 50 0 7 11 20 25 29 25 16 34 46
15 46 -6 0 -28 19 -50 41 l-40 41 6 -48 6 -49 -27 35 c-14 19 -31 34 -36 32
-6 -1 -22 12 -36 29 -17 20 -28 26 -33 19 -5 -8 -16 -8 -41 3 -38 16 -66 44
-54 55 4 4 10 1 12 -5 3 -7 13 -13 24 -13 23 0 26 46 5 76 -13 17 -14 15 -9
-26 l6 -45 -26 31 c-15 18 -27 43 -27 56 0 23 -16 48 -31 48 -7 0 2 -33 23
-88 8 -24 4 -42 -12 -42 -4 0 -6 9 -3 20 3 12 -1 22 -9 25 -9 4 -21 24 -28 46
-9 27 -17 36 -24 29 -5 -5 -17 -10 -25 -10 -13 1 -13 2 2 11 21 12 22 36 1 78
-16 31 -13 81 5 81 5 0 12 -16 15 -35 4 -19 11 -35 16 -35 12 0 0 73 -14 85
-16 13 -27 45 -20 56 3 5 13 5 25 -1 15 -9 26 -7 48 9 22 16 31 18 41 8 10
-10 12 -9 7 5 -4 12 4 19 38 29 36 11 46 19 50 41 7 30 25 30 20 0 -1 -9 0
-12 2 -6 4 13 43 7 43 -7 0 -4 16 -19 36 -33 22 -15 30 -26 22 -28 -7 -3 3
-10 22 -16 24 -8 44 -26 63 -57 16 -25 34 -45 40 -45 7 0 6 -4 -2 -9 -12 -8
-10 -12 12 -22 32 -14 30 -7 31 -134 1 -100 1 -100 -23 -99 -16 0 -28 9 -34
25 -9 21 -11 22 -15 5 -3 -13 15 -38 62 -84 36 -35 68 -72 71 -81 3 -10 21
-25 40 -34 44 -21 45 -21 45 -1 0 8 12 31 26 50 22 28 25 41 20 72 -10 63 10
109 78 178 46 48 69 64 89 64 15 0 27 -4 27 -10 0 -19 38 -10 43 10 7 27 30
25 42 -2 13 -29 43 -35 59 -12 12 15 17 16 45 5 42 -18 117 -107 96 -115 -11
-4 -15 -21 -15 -60 l0 -55 -30 5 c-16 4 -36 2 -43 -5 -10 -8 -19 -7 -33 4 -10
8 -30 14 -44 14 -24 -1 -23 -1 5 -11 47 -17 63 -36 76 -94 13 -58 10 -70 -16
-60 -12 4 -15 13 -10 34 9 41 -19 100 -51 108 -41 10 -57 -15 -62 -93 -5 -91
-18 -100 -25 -17 -6 83 -30 120 -77 117 -17 0 -39 -8 -48 -16 -10 -9 -31 -13
-52 -11 -30 3 -32 2 -10 -5 23 -8 23 -9 3 -10 -23 -1 -73 -53 -73 -77 0 -7 -8
-19 -19 -25 -15 -10 -16 -16 -7 -40 8 -21 7 -32 -2 -41 -9 -9 -12 -8 -12 8 0
11 -7 29 -15 40 -13 17 -14 16 -8 -19 5 -32 3 -36 -11 -31 -20 8 -20 12 4 -64
35 -112 116 -208 224 -264 18 -9 25 -18 18 -22 -13 -8 -144 78 -184 120 -41
45 -91 178 -90 242 1 32 -2 50 -8 47 -6 -3 -10 0 -10 7 0 7 -5 20 -10 28 -8
12 -12 13 -19 2 -6 -10 -10 -4 -15 20 -7 28 -9 30 -15 13 -7 -18 -10 -16 -26
15 -14 26 -20 31 -23 18 -2 -10 4 -25 12 -34 9 -8 16 -22 16 -31 0 -13 3 -13
15 -3 13 10 15 9 15 -10 0 -16 4 -20 15 -16 20 7 35 -32 39 -99 6 -104 69
-200 189 -287 l73 -53 -1 -79 0 -80 35 -24 c33 -22 41 -23 127 -17 91 7 93 6
143 -24 28 -17 57 -31 65 -31 27 0 64 23 67 42 3 17 11 14 75 -27 67 -43 76
-46 135 -45 37 1 81 -5 107 -14 50 -18 65 -13 58 20 -2 13 -1 42 3 64 7 39 7
40 -34 54 -24 9 -68 15 -106 13 -64 -2 -64 -2 -105 42 -38 42 -45 64 -24 85 5
6 17 2 29 -12 11 -12 33 -24 48 -28 15 -3 33 -8 40 -10 9 -3 11 2 7 15 -3 10
1 24 10 31 8 7 15 19 15 27 0 24 42 5 73 -33 24 -28 36 -34 67 -34 50 0 68
-21 46 -55 -21 -32 -20 -73 3 -108 l18 -28 17 25 c18 29 21 68 5 97 -18 35 -5
41 33 15 20 -13 39 -22 41 -20 3 3 22 -2 42 -10 20 -9 41 -14 45 -11 5 3 11 1
14 -3 5 -8 29 -6 127 13 31 6 41 3 71 -24 28 -24 45 -31 77 -31 22 0 41 -4 41
-10 0 -8 60 -30 82 -30 4 0 15 14 24 31 14 28 14 51 -2 92 -3 10 3 17 20 21
16 4 26 13 26 25 0 21 -19 31 -56 31 -29 0 -32 -16 -4 -25 31 -10 24 -29 -7
-20 -16 4 -54 9 -87 12 -50 4 -66 1 -106 -21 -60 -33 -88 -34 -35 -1 43 27 53
44 54 90 1 54 -12 59 -52 19 -31 -29 -37 -42 -35 -70 2 -28 -4 -40 -27 -59
-41 -33 -45 -31 -29 13 19 54 17 87 -9 140 -13 26 -22 55 -19 65 2 12 -8 28
-27 44 -18 15 -32 38 -35 57 -3 17 -8 48 -11 69 -7 44 8 49 25 7 7 -16 16 -30
21 -30 13 0 16 -1 49 -10 25 -7 35 -4 63 18 45 37 47 41 47 101 l0 53 -80 83
c-124 127 -128 160 -30 281 38 48 66 92 63 98 -4 5 -8 19 -9 31 -1 11 -9 36
-18 55 l-16 35 6 -45 c4 -25 7 -55 7 -67 -1 -13 3 -23 9 -23 10 0 -93 -128
-104 -129 -4 -1 4 18 17 42 31 53 31 68 0 97 -14 13 -25 31 -25 39 1 14 2 13
11 -1 14 -25 33 -23 19 1 -12 23 -13 54 -2 47 5 -3 7 9 5 27 l-4 32 16 -27
c17 -31 42 -39 30 -10 -4 9 -9 26 -12 37 -4 18 -3 18 7 3 6 -10 18 -18 26 -18
14 0 14 2 0 16 -9 8 -16 20 -16 25 0 25 -55 -11 -70 -46 -7 -17 -9 -17 -9 -2
-1 20 -17 23 -24 5 -6 -15 -27 35 -27 63 0 17 5 18 41 13 40 -7 41 -6 29 16
-6 12 -8 20 -3 18 4 -2 47 -23 94 -46 98 -49 199 -68 199 -38 0 9 -4 16 -9 16
-15 0 -181 132 -181 144 0 6 -33 42 -72 80 l-73 69 60 -45 c145 -109 274 -178
335 -178 30 0 25 13 -27 62 -27 25 -77 76 -113 112 l-65 67 70 -47 c107 -71
245 -132 245 -106 0 5 -48 58 -107 118 -60 60 -138 145 -175 189 -87 106 -223
242 -249 250 -20 7 -107 67 -219 152 -82 62 -263 153 -304 153 -32 0 -104 -33
-107 -48 -1 -4 -3 -52 -4 -107 -2 -77 2 -111 16 -146 l18 -46 -39 -38 c-21
-21 -52 -65 -69 -99 -17 -34 -42 -73 -56 -86 l-27 -25 13 30 c7 17 26 44 41
61 22 23 32 50 44 110 9 43 22 89 30 101 19 30 18 35 -5 22 -30 -19 -45 -5
-65 60 -10 34 -21 59 -24 56 -8 -8 31 -165 42 -165 5 0 15 8 22 18 8 10 6 -6
-6 -40 -11 -32 -20 -68 -20 -82 0 -13 -3 -32 -6 -41 -6 -13 -9 -14 -16 -3 -8
10 -9 9 -5 -4 8 -23 -19 -44 -36 -29 -8 6 -18 7 -22 3 -5 -4 -5 2 0 13 9 23 9
25 7 88 -1 28 -7 47 -13 47 -8 0 -10 -18 -6 -58 11 -101 -39 -106 -67 -8 -20
66 -37 83 -71 68 -32 -15 -41 -54 -26 -111 10 -41 9 -51 -9 -86 -24 -47 -25
-68 -4 -89 12 -13 14 -29 9 -79 -5 -54 -3 -68 20 -111 25 -49 31 -91 17 -112
-10 -15 -103 -45 -138 -44 -65 2 -118 -17 -151 -56 -24 -27 -31 -43 -27 -60 4
-17 0 -25 -18 -34 -12 -7 -33 -21 -45 -32 -29 -27 -62 -17 -56 16 5 25 -18 49
-25 27 -2 -6 -17 9 -33 34 -16 25 -36 48 -44 51 -10 4 -13 13 -10 25 7 21 -5
25 -21 9 -7 -7 -18 -2 -34 15 -13 14 -18 25 -12 25 7 0 12 7 12 15 0 8 -4 15
-10 15 -5 0 -10 -4 -10 -10 0 -14 -26 -12 -38 3 -8 10 1 23 38 55 27 23 52 42
57 42 4 0 24 23 43 52 30 44 35 48 38 29 2 -14 -14 -52 -43 -98 -25 -41 -44
-77 -41 -80 2 -3 26 28 53 67 46 70 48 75 44 136 -3 59 -1 64 32 100 32 35 34
36 40 15 3 -14 -7 -46 -28 -89 -19 -36 -32 -68 -30 -71 2 -2 10 8 16 23 7 15
17 25 23 23 18 -7 10 -47 -29 -146 -20 -51 -35 -94 -33 -96 2 -2 23 42 47 98
28 67 43 116 42 143 0 50 12 100 25 97 12 -2 64 29 64 39 0 11 -18 10 -25 -2
-10 -16 -28 -12 -21 5 3 8 1 15 -3 15 -5 0 -11 -7 -15 -15 -3 -8 -10 -15 -16
-15 -15 0 -12 36 5 50 8 7 15 17 15 23 0 7 -4 7 -12 -1 -31 -31 -39 3 -8 36
26 28 26 51 0 27 -28 -25 -37 -12 -10 15 12 12 19 24 16 28 -4 3 -13 -3 -20
-14 -8 -10 -18 -16 -22 -11 -4 4 5 21 21 37 30 31 28 38 -6 20 -15 -9 -19 -7
-19 5 0 8 11 21 25 27 14 6 25 15 25 20 0 5 -5 6 -11 3 -16 -11 -6 28 11 42
13 11 13 12 -3 13 -25 0 -16 24 11 28 29 4 28 20 0 24 -22 3 -21 4 7 20 25 14
26 17 10 18 -18 0 -18 2 5 20 23 18 23 20 5 21 -16 0 -14 3 9 13 25 12 26 14
10 21 -13 5 -15 9 -6 12 19 7 14 23 -8 23 -24 0 -25 8 -3 32 21 23 27 58 10
58 -6 1 -1 8 13 16 l25 15 -25 -5 c-14 -3 -43 -9 -65 -12 -39 -6 -39 -6 -22
12 14 15 32 19 82 19 53 0 67 -4 89 -24 39 -37 34 -71 -19 -128 -45 -48 -45
-48 -43 -115 2 -56 -1 -71 -17 -87 -50 -50 -58 -78 -30 -101 15 -13 20 -42 9
-53 -14 -14 -11 -65 5 -84 12 -16 21 -19 38 -12 29 11 63 66 63 101 0 32 58
168 71 168 5 0 9 6 9 13 0 20 55 94 85 113 36 24 112 36 153 25 30 -9 33 -8
27 7 -4 9 -9 42 -11 72 -6 67 9 50 25 -30 7 -30 18 -66 26 -80 13 -23 14 -23
15 -5 0 12 4 25 9 30 5 6 5 19 1 30 -7 19 -8 18 -15 -5 -8 -22 -10 -18 -23 35
-7 33 -16 79 -19 103 -10 85 -33 30 -33 -79 l0 -59 -55 0 c-73 0 -121 -25
-165 -86 -18 -27 -38 -52 -42 -55 -14 -9 -76 -166 -83 -210 -9 -51 -40 -86
-61 -68 -16 13 -18 43 -4 69 7 14 7 33 -1 64 -11 43 -10 48 20 92 17 26 31 50
31 53 0 3 -4 23 -9 44 -9 36 -7 42 23 75 79 90 85 123 31 171 -32 28 -42 31
-100 31 -64 0 -66 -1 -128 -54z m93 -19 c0 -13 -31 -29 -120 -63 -19 -8 -39
-14 -45 -14 -14 0 64 70 89 80 33 14 76 12 76 -3z m820 -17 c20 -5 45 -17 55
-26 19 -15 19 -15 -8 -9 -15 3 -27 2 -26 -2 1 -5 -2 -18 -6 -30 l-7 -22 -19
22 -19 22 6 -30 c10 -47 10 -50 -6 -50 -8 0 -19 15 -25 33 -13 44 -25 41 -19
-5 l5 -38 -25 30 c-17 20 -26 25 -26 14 0 -8 9 -25 21 -37 22 -25 45 -80 36
-89 -4 -3 -12 6 -18 21 -13 27 -33 37 -23 11 5 -12 2 -14 -12 -8 -17 6 -17 5
-5 -10 7 -9 20 -17 27 -17 8 0 14 -6 14 -12 0 -7 12 -24 27 -38 22 -21 26 -22
19 -6 -7 20 -7 20 16 0 27 -23 48 -48 43 -52 -2 -2 -25 8 -51 22 -53 28 -67
27 -39 -4 10 -11 14 -20 8 -20 -6 0 -8 -11 -6 -24 5 -24 -19 -42 -40 -29 -6 4
-8 0 -4 -10 4 -10 10 -24 14 -33 5 -13 2 -15 -16 -9 -20 6 -22 4 -16 -14 6
-21 -8 -30 -20 -11 -15 24 -24 7 -10 -20 21 -41 19 -57 -5 -35 -11 10 -20 13
-20 7 0 -6 5 -14 10 -17 6 -3 10 -13 10 -22 0 -15 -2 -14 -18 0 -22 20 -39 23
-24 5 5 -7 10 -25 10 -41 0 -22 -3 -25 -14 -16 -11 9 -14 7 -14 -12 l-1 -24
-21 25 c-17 20 -20 21 -14 5 16 -40 18 -55 8 -55 -5 0 -15 15 -22 33 -7 17
-14 26 -17 19 -11 -30 43 -105 150 -209 114 -110 188 -168 206 -162 15 6 -13
73 -50 121 l-34 43 32 -23 c18 -13 49 -29 70 -36 33 -11 38 -17 35 -40 -4 -30
21 -65 47 -67 9 0 1 -5 -18 -11 -23 -6 -30 -12 -22 -17 6 -4 11 -14 9 -22 -2
-10 12 -15 51 -19 31 -3 56 -10 59 -18 3 -9 -3 -10 -24 -2 -46 18 -146 -16
-177 -60 -7 -11 -16 -18 -19 -15 -3 3 -11 -1 -18 -10 -7 -8 -18 -15 -25 -15
-8 0 -16 -6 -18 -12 -4 -9 -6 -8 -6 2 -1 9 -19 34 -42 55 -38 37 -40 43 -36
85 8 73 -32 99 -156 101 -9 0 -29 7 -45 15 -15 7 -49 14 -77 14 l-50 0 0 43
c0 23 -9 60 -21 82 -16 30 -21 59 -22 115 -1 96 4 110 33 110 35 0 40 -18 16
-51 -25 -34 -20 -49 15 -49 38 0 80 26 93 57 7 16 24 34 41 40 20 8 37 28 59
71 17 33 53 87 81 121 49 59 61 93 39 107 -21 13 -41 75 -29 89 8 10 9 36 5
78 -7 61 -6 65 20 85 30 24 61 27 115 12z m-832 -46 c-9 -25 -17 -30 -44 -31
-19 -1 -34 0 -34 2 0 6 83 65 87 62 1 -2 -2 -17 -9 -33z m955 -10 c84 -44 227
-154 227 -175 0 -5 -19 3 -42 17 -24 13 -60 29 -81 34 -27 8 -45 22 -65 53
-15 23 -31 45 -37 49 -55 37 -57 50 -2 22z m14 -62 c14 -18 23 -35 20 -38 -2
-2 -32 14 -66 37 -50 33 -59 44 -50 55 9 12 16 11 41 -4 16 -9 41 -32 55 -50z
m-1106 47 c18 6 34 10 36 8 1 -2 -28 -23 -65 -46 -132 -85 -269 -192 -367
-288 -140 -137 -372 -377 -359 -369 21 11 75 60 132 120 138 143 524 477 557
482 8 1 31 18 51 38 30 29 45 36 76 36 21 0 38 -4 38 -9 0 -13 -80 -81 -97
-82 -22 -2 -27 -4 -60 -22 -18 -10 -33 -13 -33 -8 0 5 5 13 10 16 6 3 10 12
10 18 -1 14 -40 -31 -40 -45 0 -6 13 -8 32 -4 18 4 28 3 23 -2 -6 -5 -44 -36
-85 -69 -41 -34 -95 -82 -120 -107 -24 -25 -49 -46 -55 -46 -6 0 -40 -29 -75
-66 -36 -36 -80 -74 -97 -85 -18 -12 -33 -27 -33 -35 0 -8 -5 -14 -11 -14 -6
0 -34 -21 -63 -47 -28 -25 -79 -64 -114 -86 -34 -21 -62 -43 -62 -47 0 -13
-96 -59 -140 -66 l-43 -7 103 93 c56 52 155 157 220 234 123 149 286 311 405
401 90 70 177 118 186 103 5 -8 16 -7 40 1z m140 -39 c-30 -26 -49 -26 -26 0
10 11 25 20 34 20 12 -1 10 -5 -8 -20z m920 -39 c24 -21 41 -42 37 -46 -12
-13 -128 52 -128 72 0 26 48 12 91 -26z m-937 -11 c-11 -9 -74 -31 -74 -25 0
12 75 54 79 44 2 -6 -1 -14 -5 -19z m864 -13 c16 -18 33 -43 37 -57 6 -20 -3
-15 -49 30 -31 30 -56 57 -56 61 0 16 40 -5 68 -34z m190 -41 c19 -17 42 -48
53 -68 l19 -38 -67 37 c-38 20 -75 42 -84 50 -30 25 -33 13 -4 -17 16 -16 36
-30 44 -30 9 0 54 -30 101 -65 47 -36 128 -97 180 -135 98 -71 172 -140 345
-319 111 -115 108 -118 -40 -45 -53 25 -136 80 -202 131 -295 233 -438 356
-388 337 20 -8 19 15 -2 46 -17 25 -17 25 4 10 33 -24 201 -164 412 -344 107
-91 197 -164 200 -161 3 3 -17 25 -44 48 -27 23 -96 83 -152 132 -190 168
-421 356 -433 352 -10 -3 -90 69 -90 82 0 7 5 9 10 6 15 -10 80 -14 80 -6 0 4
-7 16 -15 27 -8 10 -15 22 -15 27 0 11 49 -21 88 -57z m-182 -50 c17 -30 14
-30 -37 5 -14 10 -28 17 -30 15 -2 -3 -4 5 -4 17 -1 12 -4 33 -9 47 -6 21 -2
19 28 -15 20 -22 43 -53 52 -69z m-884 72 c-7 -7 -12 -20 -12 -31 0 -16 -7
-18 -47 -16 -30 2 -48 -1 -51 -9 -2 -7 5 -12 15 -13 15 0 14 -3 -6 -17 -24
-16 -112 -44 -119 -37 -8 8 16 35 63 74 51 42 79 53 69 26 -8 -21 -1 -19 42
10 39 26 67 34 46 13z m1328 -183 c63 -53 170 -150 237 -217 67 -67 125 -120
128 -116 16 15 -335 341 -475 442 -24 17 -24 17 -3 11 19 -5 22 -3 16 11 -8
22 124 -67 195 -131 28 -26 115 -120 192 -210 77 -90 160 -180 183 -200 35
-30 38 -35 17 -30 -61 16 -190 104 -410 279 -209 166 -250 200 -250 208 0 4
-13 30 -30 56 -16 27 -30 55 -30 61 0 16 88 -47 230 -164z m-1349 112 c-1 -4
-1 -16 -1 -27 0 -17 -7 -20 -42 -20 l-43 1 33 30 c31 27 55 35 53 16z m983
-16 c8 -7 24 -29 36 -48 19 -32 19 -35 3 -28 -10 4 -29 10 -41 13 -21 4 -62
54 -62 74 0 11 47 3 64 -11z m-1169 -51 c17 0 15 -3 -10 -19 -16 -10 -56 -40
-87 -67 -31 -27 -90 -74 -130 -104 -40 -30 -116 -96 -168 -147 -118 -113 -302
-260 -355 -283 -50 -22 -104 -35 -90 -22 6 5 42 31 80 57 39 27 75 54 80 60 6
7 42 32 80 57 39 25 111 83 161 129 50 46 126 113 169 149 42 36 112 98 153
137 50 47 80 69 86 63 6 -6 19 -10 31 -10z m85 5 c0 -3 -15 -11 -32 -19 -36
-15 -81 -57 -113 -102 -11 -16 -65 -76 -121 -134 -55 -58 -114 -119 -130 -136
-41 -42 -202 -194 -243 -227 -18 -15 -32 -30 -29 -32 13 -14 135 90 288 246
167 170 254 249 274 249 6 0 -2 -12 -16 -27 -14 -16 -33 -44 -41 -64 -13 -33
-99 -121 -293 -302 -33 -31 -83 -69 -110 -83 -60 -32 -205 -86 -212 -79 -3 2
25 32 62 66 36 34 131 134 210 223 79 89 161 175 182 191 21 16 77 61 124 100
107 90 169 135 187 135 7 0 13 -2 13 -5z m100 0 c0 -11 -40 -24 -55 -19 -13 6
-14 8 -3 15 14 9 58 12 58 4z m445 -25 c7 -23 -1 -55 -22 -89 -20 -30 -33 -13
-33 45 0 57 40 90 55 44z m445 5 c36 -19 39 -35 7 -35 -25 0 -62 32 -50 43 9
9 10 9 43 -8z m-984 -40 c-12 -13 -28 -33 -36 -44 -8 -12 -31 -26 -50 -30 -19
-5 -44 -12 -55 -16 -19 -8 -19 -7 1 16 12 13 23 30 25 36 2 7 26 28 54 46 37
26 54 32 66 24 14 -9 13 -12 -5 -32z m1086 14 c44 -29 61 -49 39 -49 -24 0
-78 25 -93 44 -38 46 -14 48 54 5z m-1013 -11 c11 -15 7 -21 -35 -48 -60 -37
-68 -38 -49 -1 12 25 65 77 69 69 1 -2 8 -11 15 -20z m891 -11 c8 -7 22 -21
30 -31 14 -18 13 -19 -12 -13 -14 4 -33 10 -42 13 -15 6 -15 3 -5 -20 8 -17
16 -23 23 -17 24 19 75 -1 117 -46 22 -24 39 -47 36 -49 -7 -7 -111 44 -136
67 -11 11 -21 17 -21 13 0 -4 -13 5 -29 20 -29 28 -32 56 -5 56 8 0 14 5 14
10 0 13 12 12 30 -3z m95 -26 c64 -29 88 -71 33 -58 -30 8 -109 76 -88 76 8 0
33 -8 55 -18z m-430 -55 c44 -15 54 -35 30 -59 -8 -9 -15 -22 -15 -30 0 -23
-38 -64 -70 -75 -35 -13 -35 -11 -14 29 12 24 13 33 3 45 -10 12 -10 22 0 50
7 20 10 38 7 41 -8 9 -53 -35 -77 -74 -12 -18 -25 -33 -30 -33 -14 0 6 44 45
98 20 27 36 56 36 63 0 8 10 1 23 -14 12 -15 40 -34 62 -41z m-545 14 c0 -17
-68 -75 -77 -66 -7 7 17 56 37 76 23 23 40 19 40 -10z m1162 -47 c51 -42 173
-157 271 -255 99 -98 199 -192 224 -209 24 -17 43 -32 41 -34 -14 -14 -176 49
-245 95 l-33 22 0 -26 c0 -25 -2 -27 -36 -20 -25 5 -35 3 -30 -4 3 -6 2 -14
-4 -17 -16 -10 0 77 17 97 17 19 14 70 -6 76 -9 3 -11 -2 -6 -17 7 -23 -9 -51
-28 -51 -7 0 -7 4 1 12 19 19 14 66 -8 80 -22 14 -26 34 -8 40 7 3 9 12 5 22
-8 22 -27 12 -27 -15 0 -18 -11 -24 -34 -20 -22 5 -56 -23 -56 -46 0 -13 -6
-23 -13 -23 -20 0 -14 38 9 54 23 17 14 30 -16 21 -30 -9 -56 -53 -41 -68 18
-18 13 -47 -11 -57 -13 -6 -31 -16 -42 -22 -15 -11 -20 -10 -29 7 -7 11 -43
50 -81 87 -82 80 -84 102 -2 28 30 -29 60 -50 66 -48 6 2 -10 19 -35 38 -46
36 -55 50 -32 50 16 0 85 -48 106 -73 7 -9 19 -17 25 -17 6 0 -29 38 -78 85
-49 47 -84 85 -76 85 15 0 77 -44 100 -70 19 -22 70 -55 70 -45 0 4 -25 30
-55 59 -30 28 -55 56 -55 61 0 12 -39 63 -40 52 0 -4 7 -18 16 -32 l15 -24
-48 19 c-49 18 -53 23 -71 78 l-11 34 27 -18 c15 -9 36 -25 48 -35 11 -11 23
-17 25 -14 3 2 32 -22 64 -55 33 -33 65 -60 73 -60 7 0 -13 25 -45 55 -85 79
-41 70 52 -11 41 -37 78 -64 81 -62 3 3 -34 41 -81 84 -47 44 -92 89 -100 100
-14 21 -13 21 21 14 24 -6 61 -33 119 -89 47 -45 93 -81 102 -81 14 1 12 6
-12 27 -16 14 -74 68 -128 120 -86 81 -96 93 -73 93 17 0 56 -25 118 -77z
m-318 22 c24 -26 40 -65 27 -65 -18 0 -77 24 -93 37 -15 14 -15 16 0 33 23 25
39 24 66 -5z m-924 3 c0 -29 -150 -151 -166 -135 -2 2 1 19 7 38 17 49 83 105
126 105 18 0 33 -4 33 -8z m90 -66 c0 -11 -40 -34 -48 -27 -2 2 4 18 13 36 13
24 19 29 26 18 5 -8 9 -20 9 -27z m-65 -27 c-19 -72 -36 -105 -55 -105 -9 0
-26 -13 -38 -30 -13 -16 -18 -30 -13 -30 5 0 16 8 23 18 13 18 48 37 48 25 0
-9 -92 -115 -124 -142 -15 -14 -34 -31 -41 -38 -8 -7 -18 -13 -24 -13 -6 0
-11 -7 -11 -16 0 -8 -4 -13 -9 -9 -5 3 -7 21 -4 40 3 19 2 42 -1 52 -6 14 -11
10 -30 -22 -18 -32 -20 -42 -9 -48 19 -11 16 -28 -3 -20 -9 3 -20 0 -25 -8 -6
-10 -9 -6 -9 14 0 16 -5 27 -14 27 -7 0 -19 7 -26 15 -7 8 -16 15 -20 15 -12
0 -19 -39 -8 -46 5 -3 7 -12 4 -20 -3 -8 1 -14 9 -14 8 0 15 -4 15 -10 0 -5
-7 -10 -15 -10 -8 0 -15 -7 -15 -15 0 -8 -4 -15 -10 -15 -5 0 -10 6 -10 14 0
15 -22 27 -58 32 -14 2 -22 -3 -22 -12 0 -8 4 -14 9 -14 12 0 41 -29 41 -41 0
-5 -7 -9 -15 -9 -8 0 -19 -9 -25 -21 -18 -32 -22 -16 -6 22 13 32 13 35 -6 45
-23 12 -58 -1 -113 -42 -44 -33 -134 -84 -147 -84 -37 0 118 109 155 110 20 1
79 50 237 196 154 142 220 190 162 116 -16 -20 -39 -46 -51 -56 -12 -11 -21
-24 -21 -30 0 -6 38 27 85 74 47 47 85 81 85 77 0 -18 -26 -56 -82 -120 -72
-81 -70 -102 2 -26 27 29 50 49 50 45 0 -5 -20 -39 -45 -76 -25 -37 -45 -71
-45 -76 0 -4 24 18 52 51 35 38 54 69 56 89 4 41 29 117 47 139 11 15 74 55
82 52 1 0 -5 -23 -12 -50z m852 30 c17 -9 36 -22 43 -30 10 -13 8 -15 -12 -15
-29 0 -81 37 -73 51 8 12 6 12 42 -6z m-18 -54 c39 -37 41 -57 4 -36 -41 22
-63 41 -63 54 0 20 27 12 59 -18z m151 -46 c24 -24 41 -47 39 -50 -3 -3 -27
-1 -53 4 -82 15 -135 91 -63 91 26 0 42 -10 77 -45z m-152 -15 c29 -30 40 -50
27 -50 -42 0 -128 76 -103 91 15 10 34 -1 76 -41z m-78 -35 c0 -14 149 -175
162 -175 5 0 -23 36 -61 80 -39 44 -71 83 -71 85 0 15 44 -21 97 -79 54 -60
135 -185 102 -160 -8 6 -42 32 -76 58 -63 47 -133 123 -133 144 0 6 -6 10 -12
7 -7 -2 -24 9 -36 26 -20 25 -22 32 -11 45 12 14 14 14 26 -2 7 -10 13 -23 13
-29z m153 3 c18 -12 34 -26 35 -31 2 -4 15 -21 29 -37 l25 -30 -34 7 c-18 3
-50 17 -70 30 -39 24 -48 35 -25 31 13 -3 13 5 2 35 -9 23 0 22 38 -5z m403
-93 c-7 -23 -16 -34 -26 -32 -26 5 -4 67 25 67 9 0 9 -8 1 -35z m62 -6 c4 -21
-23 -53 -37 -44 -9 5 -10 10 -2 18 6 6 11 19 11 30 0 21 24 18 28 -4z m-392
-9 c19 -7 29 -8 34 0 3 5 25 -10 50 -35 24 -24 41 -47 39 -50 -6 -6 -134 56
-164 79 -17 13 -18 15 -3 16 9 0 29 -5 44 -10z m323 -37 c29 -9 56 -23 58 -30
3 -7 11 -13 19 -13 17 0 16 3 5 -38 -7 -24 -6 -35 5 -47 8 -8 20 -28 26 -45 6
-18 21 -35 34 -41 22 -8 24 -13 18 -48 -5 -31 -2 -46 15 -69 11 -17 21 -35 21
-41 0 -6 -16 -43 -35 -81 -19 -38 -35 -80 -35 -92 1 -36 33 -97 93 -176 60
-79 75 -119 57 -151 -15 -30 -37 -26 -81 14 -22 19 -47 35 -57 35 -22 0 -58
60 -41 70 7 5 8 10 1 14 -6 3 -13 0 -15 -6 -3 -7 -6 -4 -6 8 -1 11 -16 45 -34
75 -57 95 -83 179 -56 179 6 0 8 7 5 16 -9 24 22 54 55 54 21 0 28 5 27 18 -1
9 0 34 0 56 2 29 5 37 17 32 8 -3 15 0 15 6 0 6 3 8 7 4 5 -4 0 -14 -10 -21
-19 -13 -7 -32 13 -20 14 9 12 35 -5 69 -20 37 -20 36 15 30 19 -4 30 -2 30 5
0 6 -11 11 -24 11 -14 0 -28 5 -32 11 -4 7 -10 7 -16 1 -7 -7 -5 -21 6 -43 21
-42 20 -49 -3 -22 -18 22 -18 22 -25 -32 -8 -67 -16 -91 -26 -75 -10 17 -64
-55 -56 -75 3 -8 1 -15 -4 -15 -13 0 -23 38 -16 66 6 24 6 24 -16 10 -13 -8
-42 -19 -65 -24 -40 -9 -42 -9 -32 9 9 17 6 19 -29 19 -24 0 -45 -6 -52 -15
-7 -9 -19 -14 -26 -11 -8 3 -18 -3 -23 -12 -5 -10 -27 -27 -49 -40 l-39 -22
-7 47 c-11 81 -9 88 34 112 22 12 45 31 50 42 6 10 17 19 24 19 7 0 27 7 44
16 19 9 50 14 79 12 42 -3 48 -1 48 17 0 17 -8 20 -53 23 -44 3 -53 6 -50 20
4 18 9 18 43 8 29 -8 48 7 40 33 -5 18 -12 20 -44 15 -36 -6 -40 -4 -54 25
-17 35 -16 36 34 45 21 4 42 13 49 21 16 20 35 19 95 -4 29 -11 58 -16 69 -11
12 4 16 9 9 13 -6 4 -18 4 -27 1 -11 -4 -16 -1 -16 10 0 9 -4 16 -10 16 -5 0
-10 -4 -10 -10 0 -5 -4 -10 -9 -10 -5 0 -8 7 -7 16 0 9 -5 19 -13 22 -10 3
-12 0 -8 -12 5 -12 3 -16 -5 -14 -7 3 -15 15 -16 27 -3 16 0 22 10 18 7 -3 37
-14 67 -24z m-1565 -102 c3 -5 -16 -16 -42 -26 -26 -10 -57 -27 -69 -38 -13
-11 -23 -16 -23 -10 0 19 57 57 127 82 1 1 4 -3 7 -8z m926 -25 c55 -32 81
-70 42 -59 -13 3 -27 -6 -45 -27 -21 -25 -31 -29 -52 -24 -20 5 -30 1 -46 -20
-26 -33 -40 -33 -79 1 -27 22 -35 25 -51 15 -10 -6 -26 -9 -35 -5 -12 4 -15 3
-10 -6 5 -8 19 -10 37 -6 19 4 29 3 29 -5 0 -6 -5 -8 -11 -4 -6 3 -15 1 -19
-6 -5 -8 -21 -5 -59 15 -49 26 -84 56 -48 42 10 -4 24 -10 32 -13 9 -4 15 -1
15 9 0 8 -6 15 -12 14 -33 -1 -48 4 -48 16 0 42 136 97 240 96 55 0 73 -5 120
-33z m-370 -16 c-20 -13 -63 -13 -55 0 3 6 21 10 38 10 24 0 28 -3 17 -10z
m515 -21 c5 -5 -6 -9 -27 -9 -19 0 -41 7 -48 15 -10 12 -6 13 27 8 21 -3 42
-10 48 -14z m-545 -11 c-19 -5 -39 -14 -44 -19 -14 -13 -26 -11 -26 5 0 15 25
23 75 24 30 0 30 0 -5 -10z m43 -80 c-2 -5 -9 -8 -14 -8 -6 0 -7 4 -4 10 3 6
-1 7 -10 4 -20 -8 -77 15 -69 28 4 6 20 16 38 23 30 13 31 12 47 -18 8 -18 14
-35 12 -39z m487 45 c13 -13 13 -14 0 -13 -27 4 -40 0 -40 -11 0 -6 8 -8 19
-4 14 4 31 -8 66 -47 l47 -53 -6 -64 c-6 -71 -52 -164 -105 -215 -39 -37 -48
-29 -27 24 16 41 22 89 9 76 -5 -4 -14 -26 -20 -49 l-13 -42 6 54 c6 64 20 88
79 130 24 17 47 36 50 42 4 5 -13 29 -37 52 -24 23 -47 50 -51 60 -3 9 -13 14
-20 11 -18 -7 -29 20 -21 52 5 20 11 23 28 18 11 -3 28 -13 36 -21z m-80 7 c0
-6 -20 -31 -45 -55 -24 -25 -49 -45 -55 -45 -5 0 -10 -6 -10 -13 0 -8 -11 -24
-25 -37 -14 -13 -25 -18 -25 -12 0 6 5 14 10 17 6 3 10 14 10 24 0 16 -5 17
-42 10 -25 -4 -47 -4 -53 2 -17 17 -38 10 -32 -11 4 -17 2 -18 -14 -9 -10 5
-19 16 -19 23 0 19 57 28 80 14 14 -9 28 -9 62 1 67 21 89 33 116 68 24 33 42
42 42 23z m-483 -56 c2 -6 -9 -17 -23 -25 -15 -8 -40 -31 -55 -52 -15 -21 -30
-33 -34 -27 -3 5 -15 10 -26 10 -40 0 -21 26 56 73 59 36 75 41 82 21z m551
-68 c23 -25 42 -52 42 -61 0 -24 -13 -17 -38 21 -13 19 -43 49 -67 66 -24 17
-42 35 -39 40 9 14 58 -18 102 -66z m-463 38 c-60 -40 -84 -64 -116 -114 -18
-29 -29 -38 -29 -27 0 43 121 167 163 167 18 0 14 -5 -18 -26z m-1065 -29 c7
-8 18 -15 25 -15 15 0 75 -74 75 -94 0 -8 4 -17 10 -21 5 -3 7 -12 4 -20 -4
-9 10 -24 41 -42 78 -47 83 -55 15 -23 -36 16 -72 30 -81 30 -9 0 -36 17 -60
38 -24 22 -51 41 -59 45 -9 3 -3 6 13 6 27 1 28 3 22 34 -4 17 -19 42 -33 54
-26 22 -26 23 -6 23 12 0 27 -7 34 -15z m1447 -60 c37 -35 64 -67 60 -71 -3
-4 -33 21 -67 55 -33 33 -64 61 -70 61 -5 0 -10 5 -10 10 0 22 24 7 87 -55z
m-525 -7 c-19 -29 -20 -30 -26 -10 -4 13 0 31 10 47 15 23 19 24 26 10 7 -11
3 -25 -10 -47z m228 54 c0 -4 -16 -16 -36 -27 -45 -24 -97 -86 -125 -149 -18
-41 -19 -52 -9 -77 17 -39 6 -48 -13 -12 -36 70 -44 82 -50 76 -12 -12 -7 -40
11 -64 25 -32 37 -79 19 -79 -44 0 -124 112 -128 180 -3 61 0 92 11 110 8 13
12 12 27 -5 33 -36 70 -89 90 -129 l20 -39 6 32 c8 41 54 107 106 154 38 34
71 48 71 29z m724 -102 c-4 -19 -2 -30 5 -30 6 0 11 4 11 9 0 4 15 11 33 14
17 4 42 9 54 13 19 5 22 1 28 -43 10 -74 24 -111 71 -189 24 -39 44 -77 44
-83 0 -23 45 -91 64 -97 10 -3 39 -21 63 -40 57 -43 79 -43 100 0 21 45 13 71
-43 143 -59 76 -104 144 -104 157 1 6 9 -3 18 -20 27 -48 70 -99 94 -113 55
-29 98 -154 63 -183 -9 -7 -24 -21 -33 -30 -16 -15 -34 -17 -84 -9 -4 0 -14
14 -22 30 -18 33 -83 64 -71 33 3 -9 11 -42 16 -72 14 -78 18 -88 42 -110 11
-11 22 -30 24 -42 2 -12 9 -28 16 -37 9 -12 9 -13 0 -7 -8 4 -13 2 -13 -8 0
-8 6 -19 14 -23 23 -13 34 -73 20 -113 -13 -40 -57 -70 -62 -44 -2 9 5 22 15
30 17 14 17 15 -2 12 -11 -2 -25 -14 -31 -26 -6 -13 -15 -19 -18 -14 -9 15 4
42 20 42 24 0 26 25 8 90 -15 53 -22 64 -53 80 -20 10 -49 32 -66 50 -16 17
-42 38 -57 46 -30 16 -37 48 -14 61 14 8 20 49 17 106 0 16 -5 26 -10 23 -5
-3 -12 1 -15 10 -11 27 -7 52 10 58 8 3 12 10 9 16 -4 6 -12 7 -22 1 -10 -5
-30 -3 -54 7 -37 14 -37 15 -22 39 19 29 12 39 -17 23 -25 -13 -22 -15 -44 28
-9 18 -21 30 -25 27 -12 -7 -61 34 -61 51 0 25 -37 16 -44 -11 -4 -14 -11 -23
-16 -20 -9 6 -36 -44 -42 -80 -3 -18 -6 -16 -21 10 l-18 30 4 -32 c3 -26 0
-33 -14 -33 -9 0 -22 7 -29 15 -25 31 78 205 122 205 6 0 19 7 28 15 17 16
100 63 112 64 4 1 5 -12 2 -29z m-205 -40 c0 -14 -6 -36 -13 -49 l-13 -24 -7
28 c-7 26 0 79 12 99 7 13 20 -22 21 -54z m-40 -98 c1 -13 -3 -20 -9 -17 -5 3
-10 25 -9 48 1 36 2 38 9 17 4 -14 8 -35 9 -48z m-797 -6 c13 -19 10 -38 -4
-26 -7 5 -24 19 -38 29 l-25 19 30 -5 c17 -3 33 -11 37 -17z m959 -33 c0 -16
3 -23 5 -16 8 20 52 -6 69 -40 15 -31 11 -46 -16 -51 -8 -2 -34 -12 -59 -23
l-45 -21 -27 26 c-19 17 -25 29 -18 37 5 7 7 15 4 18 -3 3 -1 12 5 19 6 7 22
28 37 46 32 39 44 41 45 5z m-643 -4 c-41 -21 -53 -48 -46 -104 3 -31 1 -35
-18 -35 -21 0 -22 4 -17 38 3 20 10 47 14 59 9 25 64 63 89 63 8 -1 -2 -10
-22 -21z m62 -103 c0 -61 -18 -84 -60 -78 -30 4 -30 5 -30 66 0 64 9 85 45
104 17 9 22 7 32 -16 7 -15 12 -49 13 -76z m125 75 c6 -9 12 -40 15 -70 5 -47
3 -55 -16 -68 -19 -12 -26 -12 -43 -1 -17 10 -21 23 -21 68 0 81 8 102 34 94
11 -4 26 -14 31 -23z m215 -201 c-12 -53 -47 -130 -60 -130 -9 0 1 59 11 66 5
3 9 13 9 23 0 10 6 24 14 31 9 7 14 27 13 49 l-1 37 -23 -25 -23 -26 20 45
c24 54 25 79 5 106 -20 30 -5 40 18 12 l18 -23 -6 22 c-3 13 -3 28 2 35 13 21
16 -162 3 -222z m-105 198 c0 -25 13 -32 29 -19 12 10 17 8 25 -8 18 -34 13
-78 -14 -110 l-26 -30 -26 25 c-21 20 -24 28 -16 46 6 15 5 34 -4 60 -7 22
-11 44 -7 49 9 16 39 6 39 -13z m-385 -11 c0 -1 -4 -17 -9 -35 -6 -20 -6 -44
0 -64 7 -26 6 -35 -6 -44 -8 -6 -15 -16 -15 -23 0 -17 -37 -13 -44 5 -3 9 -6
36 -6 62 0 36 6 52 27 74 22 23 53 38 53 25z m851 -50 c-6 -8 -7 -18 -3 -22 4
-5 2 -5 -4 -2 -6 4 -40 -9 -75 -29 -61 -34 -52 -37 20 -8 19 8 36 12 38 10 9
-8 -42 -35 -79 -41 -21 -4 -38 -11 -38 -15 0 -4 19 -4 41 1 23 6 44 8 46 5 3
-3 -8 -8 -23 -12 -16 -3 -42 -10 -59 -14 -28 -8 -27 -8 15 -11 l45 -2 -50 -7
c-47 -6 -47 -7 -12 -8 23 -1 36 -6 32 -12 -4 -6 -22 -8 -43 -5 l-37 6 25 -16
c25 -16 25 -16 -15 -11 -38 4 -38 4 -12 -7 l27 -11 -27 -12 -28 -12 27 -1 c29
-1 58 -24 58 -47 0 -8 -3 -13 -7 -11 -5 3 -10 -47 -11 -112 -2 -64 -5 -118 -7
-119 -9 -9 -45 11 -50 29 -4 10 -11 19 -17 19 -6 0 -17 8 -24 18 -12 16 -13
15 -14 -8 0 -14 -7 -38 -15 -54 -15 -28 -14 -29 28 -68 23 -22 31 -33 17 -24
-98 62 -109 67 -129 57 -11 -6 -23 -20 -26 -32 -6 -19 -8 -19 -24 -5 -34 31
-84 43 -166 40 -64 -3 -76 -1 -60 8 11 6 26 20 33 30 7 10 26 25 42 33 27 14
29 14 32 -7 4 -25 52 -56 88 -57 14 0 36 8 50 19 24 18 25 18 59 -3 19 -11 31
-16 28 -10 -4 7 1 20 12 30 13 12 17 23 11 32 -5 9 -1 25 10 43 20 34 18 95
-7 175 -16 49 -16 53 1 72 18 19 15 41 -5 41 -6 0 -7 -4 -4 -10 3 -5 -3 -10
-14 -10 -23 0 -29 13 -23 52 3 20 9 28 19 24 11 -5 14 3 11 37 l-3 42 34 -2
c21 -1 43 -11 58 -26 24 -24 25 -25 8 -51 -21 -32 -30 -33 -51 -1 -16 24 -34
33 -34 17 0 -11 36 -49 50 -54 8 -2 6 -15 -6 -40 -9 -21 -21 -35 -26 -32 -17
10 -7 -44 12 -69 15 -19 20 -41 21 -94 0 -37 4 -77 9 -88 5 -13 8 17 6 78 -2
84 -6 101 -24 119 l-21 21 31 44 c16 25 40 62 52 83 16 29 40 48 96 78 81 43
99 49 81 29z m52 -49 c17 -9 27 -21 27 -35 0 -13 0 -26 0 -30 0 -5 -13 -11
-30 -16 -60 -15 -75 -75 -39 -151 34 -68 17 -85 -65 -67 -19 4 -35 18 -50 46
-12 22 -26 47 -31 55 -15 23 -15 40 1 40 8 0 14 4 14 9 0 5 11 12 25 15 18 5
27 15 31 35 3 16 17 34 30 41 12 7 22 16 21 19 -2 10 23 51 31 51 5 0 20 -6
35 -12z m-568 -27 c3 -10 14 -21 25 -24 13 -3 17 -11 13 -25 -3 -11 -11 -18
-18 -16 -14 6 -28 -22 -19 -37 3 -5 21 -9 40 -9 31 0 34 2 29 23 -4 15 -1 28
9 36 9 8 16 10 16 6 0 -4 7 -2 15 5 27 23 28 2 1 -30 -14 -17 -26 -37 -26 -43
0 -9 -47 -12 -172 -12 -103 0 -196 -6 -230 -13 l-56 -13 -43 42 c-27 26 -39
44 -31 47 7 2 19 -1 26 -7 11 -9 15 -9 19 1 4 10 10 8 21 -6 11 -14 13 -23 5
-32 -12 -15 2 -26 25 -19 9 3 23 7 31 10 13 4 14 9 4 26 -8 15 -13 18 -19 10
-5 -9 -9 -8 -14 4 -8 21 0 35 20 35 8 0 14 10 14 25 0 30 16 33 25 4 5 -14 13
-19 26 -16 23 6 31 -5 23 -28 -5 -13 -8 -14 -15 -3 -6 9 -9 5 -9 -13 0 -40 19
-50 63 -32 38 16 53 39 17 28 -17 -5 -20 -2 -20 20 0 22 3 25 21 20 18 -6 20
-5 10 14 -11 19 -9 21 18 21 25 0 28 -3 23 -22 -5 -21 -4 -22 11 -9 15 12 17
11 17 -13 0 -20 -5 -26 -22 -26 -22 -1 -23 -1 -4 -15 22 -17 82 -20 91 -5 3 5
1 18 -4 27 -6 10 -11 12 -11 6 0 -25 -20 -13 -20 12 0 18 5 25 19 25 11 0 23
9 26 20 8 25 22 26 30 1z m-592 -50 c15 -26 24 -81 13 -81 -2 0 -12 -3 -22 -7
-12 -4 -15 -3 -10 6 4 6 3 18 -4 26 -7 9 -8 15 0 20 5 3 10 11 10 17 0 6 -11
3 -25 -6 -27 -18 -75 -22 -75 -6 0 20 49 60 72 60 16 0 30 -10 41 -29z m1217
-26 c14 -17 5 -68 -17 -102 -14 -20 -13 -27 1 -64 9 -22 13 -45 9 -51 -4 -8
-9 -5 -14 8 -6 13 -7 6 -5 -20 2 -21 1 -47 -1 -57 -7 -24 -46 -25 -64 -2 -10
11 -10 14 -1 9 6 -4 12 -2 12 3 0 16 -43 13 -76 -4 -49 -26 -64 -20 -64 24 0
21 -5 52 -11 70 -20 57 -2 44 32 -24 18 -36 36 -65 41 -65 12 0 9 12 -7 34
-18 24 -10 39 15 26 25 -14 63 -13 78 2 18 18 15 53 -8 90 -11 18 -20 50 -20
70 0 33 4 40 33 52 42 19 52 19 67 1z m-399 -117 c9 -23 14 -98 10 -158 -4
-54 -51 112 -51 179 0 15 6 33 13 40 10 10 13 8 15 -11 2 -13 8 -35 13 -50z
m-268 36 c-3 -8 -19 -14 -36 -14 -17 0 -27 3 -24 7 4 3 3 11 -2 17 -7 8 1 10
29 8 28 -3 37 -8 33 -18z m-157 -1 c-4 -27 -52 -30 -59 -4 -4 18 0 21 28 21
26 0 33 -4 31 -17z m79 8 c3 -5 0 -13 -5 -16 -16 -10 -62 4 -55 15 8 13 52 13
60 1z m165 2 c0 -14 -15 -29 -32 -36 -10 -3 -18 -16 -18 -28 0 -18 -4 -21 -32
-16 -32 5 -216 -7 -290 -19 -30 -4 -39 -2 -44 11 -4 9 -4 18 -2 20 12 12 123
26 213 26 130 1 155 5 155 30 0 14 7 19 25 19 14 0 25 -3 25 -7z m-337 -23 c4
-16 0 -20 -18 -20 -14 0 -25 7 -28 20 -4 16 0 20 18 20 14 0 25 -7 28 -20z
m355 -26 c40 -11 26 -34 -20 -34 -29 0 -38 3 -29 9 7 5 10 14 7 20 -8 12 7 14
42 5z m112 -18 c0 -23 -125 -132 -185 -160 -83 -40 -89 -26 -9 19 38 22 93 65
124 96 59 60 70 67 70 45z m-245 -57 c-72 -35 -81 -35 -141 -6 l-46 22 83 6
c46 3 102 6 124 6 l40 1 -60 -29z m115 26 c0 -10 -143 -75 -149 -68 -3 3 -1 7
4 10 6 2 33 16 60 32 46 27 85 38 85 26z m712 -101 c20 -10 31 -28 43 -66 20
-67 19 -77 -4 -71 -12 3 -28 -4 -41 -17 l-22 -22 -59 28 c-32 16 -59 35 -59
42 0 7 -4 11 -9 7 -5 -3 -36 11 -68 30 -32 19 -65 35 -73 35 -9 1 -5 6 10 15
21 11 27 11 40 0 8 -8 28 -19 45 -25 25 -9 31 -8 42 6 7 10 13 30 13 46 0 15
5 28 10 28 6 0 10 16 10 36 l0 36 48 -47 c26 -26 59 -53 74 -61z m-986 61 c36
-19 75 -35 87 -35 38 0 45 -12 40 -71 -5 -52 -8 -58 -39 -73 -38 -18 -54 -20
-54 -8 0 4 16 14 35 21 29 10 35 17 35 41 0 31 2 31 -92 4 -73 -20 -57 1 20
27 37 12 71 24 76 27 4 2 -18 13 -49 24 -53 18 -135 62 -135 73 0 9 9 5 76
-30z m385 -17 l-36 -17 36 -1 c32 0 37 -4 46 -34 11 -34 11 -35 -15 -25 -14 6
-40 9 -56 7 -47 -5 -45 24 5 77 37 40 44 44 50 28 5 -14 -2 -22 -30 -35z m238
-42 c6 -32 7 -63 4 -70 -8 -11 -21 54 -22 108 -1 43 6 29 18 -38z m-1284 -3
c0 -6 -25 -25 -55 -41 -61 -33 -78 -56 -33 -47 21 5 24 4 13 -4 -8 -5 -11 -13
-7 -17 12 -13 121 -8 147 6 14 8 27 14 30 15 3 0 19 10 37 23 17 12 36 22 42
22 6 0 11 5 11 12 0 23 14 -3 16 -30 1 -15 5 -35 9 -44 6 -14 -4 -23 -46 -43
-30 -14 -61 -25 -69 -25 -9 0 -26 -8 -39 -17 -14 -9 -45 -20 -70 -24 -25 -4
-54 -10 -63 -14 -13 -5 -18 -2 -18 9 0 18 -30 36 -59 36 -24 0 -25 2 -9 69 6
28 17 51 24 51 10 0 48 30 89 70 13 13 50 8 50 -7z m982 -49 c-1 -1 -19 -5
-39 -9 -49 -9 -52 14 -5 44 l32 20 7 -26 c4 -15 6 -28 5 -29z m-637 37 c0 -16
-27 -31 -45 -25 -17 7 -17 8 1 21 20 15 44 17 44 4z m736 -41 c22 -9 24 -13
14 -25 -11 -13 -16 -13 -42 3 -16 9 -35 23 -41 31 -10 12 -8 13 15 8 15 -4 39
-12 54 -17z m819 -66 c-8 -13 -20 -24 -25 -24 -19 0 -10 54 13 78 l22 24 3
-27 c2 -14 -4 -37 -13 -51z m-2257 1 c-3 -56 -23 -70 -39 -28 -8 22 -7 35 6
62 21 45 37 29 33 -34z m1332 14 c0 -14 -26 -10 -40 6 -7 8 -18 15 -26 15 -7
0 -15 4 -19 9 -3 6 15 3 40 -5 25 -9 45 -20 45 -25z m-307 -28 c16 -6 77 -11
136 -11 95 0 113 -3 157 -25 60 -31 72 -31 76 -2 5 33 51 26 103 -18 36 -29
51 -35 92 -35 71 0 165 -18 174 -32 7 -10 2 -85 -5 -95 -1 -1 -22 5 -46 13
-28 10 -64 14 -95 11 -54 -5 -79 4 -148 54 -22 16 -46 29 -54 29 -7 0 -13 5
-13 10 0 16 19 11 53 -14 68 -51 114 -67 185 -65 37 1 77 -1 90 -5 20 -7 22
-4 22 24 0 40 -26 50 -134 50 l-83 0 -57 45 c-32 25 -62 45 -67 45 -4 0 -11
-21 -14 -47 -13 -102 -33 -113 -119 -65 -48 27 -57 29 -136 24 -63 -3 -95 0
-123 11 -37 16 -37 16 -37 74 0 32 4 53 8 46 4 -6 20 -17 35 -22z m1398 -25
c47 -20 72 -64 56 -97 -14 -27 -51 -37 -73 -19 -19 17 -18 50 2 50 12 0 15 -7
12 -25 -6 -29 -1 -31 24 -8 25 22 23 41 -6 54 -30 14 -66 -3 -66 -31 0 -16 -4
-14 -29 11 -22 22 -39 29 -67 29 -50 0 -34 14 36 33 71 19 72 20 111 3z m-550
-49 c-6 -6 -11 -18 -10 -26 0 -11 3 -10 9 4 9 20 9 20 9 0 0 -11 -3 -27 -9
-35 -7 -12 -10 -11 -16 5 -4 11 -8 22 -9 25 -6 13 16 51 26 45 8 -5 8 -10 0
-18z m454 -17 c10 -11 15 -23 11 -27 -8 -9 -76 24 -76 37 0 18 46 11 65 -10z"/>
<path d="M2510 1492 c0 -14 158 -117 167 -109 2 3 -28 27 -69 54 -95 64 -98
66 -98 55z"/>
<path d="M2185 1450 c-9 -14 4 -32 17 -24 6 4 14 0 19 -7 4 -7 11 -10 14 -7 9
9 -2 26 -25 38 -13 7 -21 7 -25 0z"/>
<path d="M2272 1380 c2 -32 7 -53 13 -50 12 6 7 81 -6 95 -7 7 -9 -9 -7 -45z"/>
<path d="M2257 1303 c-4 -3 -7 -19 -7 -35 0 -15 -4 -28 -10 -28 -5 0 -10 -4
-10 -10 0 -5 6 -10 14 -10 8 0 16 -5 18 -12 3 -8 12 -4 26 10 28 28 29 51 1
26 l-21 -19 4 43 c3 40 -1 50 -15 35z"/>
<path d="M2120 1200 c-11 -11 -26 -17 -35 -14 -29 11 -15 -15 17 -30 35 -18
72 -21 63 -6 -3 6 -18 10 -32 10 l-27 0 29 30 c31 33 17 42 -15 10z"/>
<path d="M2302 1173 c3 -33 28 -62 28 -32 0 7 7 21 17 31 18 20 4 25 -15 6 -9
-9 -12 -7 -12 10 0 12 -5 22 -11 22 -6 0 -9 -16 -7 -37z"/>
<path d="M1985 515 c8 -37 25 -57 25 -29 0 11 -7 29 -16 40 -15 18 -15 18 -9
-11z"/>
<path d="M1973 424 c4 -21 7 -50 7 -63 0 -19 3 -22 11 -14 14 14 3 99 -13 109
-8 5 -9 -5 -5 -32z"/>
<path d="M1410 215 c0 -8 -2 -20 -6 -28 -9 -24 45 -38 136 -36 63 2 95 -2 125
-15 113 -50 102 -49 107 -16 4 25 -1 33 -34 55 -34 23 -47 25 -145 25 -64 1
-123 6 -145 14 -31 11 -38 11 -38 1z"/>
<path d="M1121 1682 c-10 -21 -17 -49 -14 -62 2 -15 -8 -53 -27 -95 -80 -179
-83 -186 -93 -170 -13 24 -1 71 43 174 22 51 40 95 40 99 0 4 -19 -27 -41 -68
-23 -41 -57 -96 -76 -122 -35 -48 -35 -62 -1 -31 17 15 18 14 18 -24 0 -36 22
-85 33 -73 2 3 13 30 24 60 l21 54 7 -42 c4 -23 10 -44 15 -47 28 -17 76 141
84 275 4 78 3 83 -10 60 l-15 -25 7 25 c4 14 9 31 11 38 11 28 -8 9 -26 -26z
m10 -138 c-12 -92 -38 -187 -50 -179 -14 8 -23 74 -12 93 9 15 11 14 11 -8 l1
-25 10 25 c6 14 8 33 5 42 -2 10 -1 16 4 13 4 -3 13 25 20 61 17 88 23 75 11
-22z"/>
<path d="M746 1354 c-19 -11 -25 -19 -18 -26 12 -12 52 11 52 29 0 16 2 16
-34 -3z"/>
<path d="M790 1332 c-14 -9 -27 -19 -30 -22 -3 -4 -16 -13 -28 -22 l-24 -16
22 -12 c17 -9 19 -14 10 -25 -7 -8 -8 -20 -4 -26 5 -9 2 -10 -10 -6 -10 4 -21
7 -26 7 -14 0 -21 32 -9 47 25 30 -3 25 -34 -7 l-32 -33 28 5 28 5 -22 -23
c-12 -13 -18 -24 -12 -24 6 0 16 7 23 15 10 12 15 10 37 -15 26 -32 63 -40 63
-15 0 9 6 12 16 8 10 -4 17 1 20 15 4 13 12 18 25 15 22 -6 25 11 9 52 -11 28
-36 29 -34 2 2 -15 -1 -15 -27 -1 -25 12 -28 18 -19 34 9 16 15 18 30 10 16
-9 25 -6 43 11 l22 22 -22 -6 c-15 -3 -20 -1 -16 9 6 17 4 17 -27 -4z m-6
-123 c-9 -10 -21 -19 -26 -19 -15 0 -8 29 9 39 26 14 37 2 17 -20z"/>
<path d="M663 1306 c-26 -12 -30 -26 -9 -26 25 0 46 12 46 26 0 16 -6 16 -37
0z"/>
<path d="M860 1203 c0 -64 3 -82 16 -87 12 -5 14 -1 8 17 -4 12 -8 48 -8 79
-1 31 -4 60 -8 64 -5 4 -8 -29 -8 -73z"/>
<path d="M921 1227 c-1 -21 10 -40 36 -65 23 -24 38 -32 40 -24 3 6 9 10 14 6
5 -3 9 4 9 15 0 12 -7 21 -16 21 -8 0 -12 -5 -9 -10 4 -6 -4 -6 -18 1 -14 6
-32 28 -40 48 -15 36 -15 36 -16 8z"/>
<path d="M640 1158 c0 -17 40 -53 69 -63 9 -3 25 -19 35 -36 18 -31 55 -38 63
-12 3 7 -3 9 -16 6 -13 -3 -24 3 -36 21 -9 14 -25 28 -35 31 -10 3 -32 20 -49
37 -22 23 -31 27 -31 16z"/>
<path d="M721 1136 c19 -19 100 -52 106 -43 4 6 11 3 19 -7 8 -12 14 -14 19
-6 4 6 1 17 -5 25 -14 17 -40 20 -40 5 0 -6 -10 -4 -22 4 -23 14 -88 33 -77
22z"/>
<path d="M950 1120 c0 -5 4 -10 9 -10 5 0 15 -17 21 -37 13 -41 51 -103 63
-103 14 0 7 27 -12 44 -11 10 -22 30 -26 44 -12 49 -55 97 -55 62z"/>
<path d="M1034 1114 c3 -9 6 -25 7 -37 l0 -22 9 23 c10 24 4 52 -12 52 -6 0
-7 -7 -4 -16z"/>
<path d="M1480 1058 c0 -10 -10 -23 -22 -29 -21 -11 -21 -12 -4 -25 17 -12 17
-14 2 -29 -21 -21 -20 -31 4 -55 23 -23 33 -24 61 -10 23 13 24 33 4 64 -14
21 -14 24 0 29 17 7 21 27 4 27 -6 0 -19 10 -30 23 -15 18 -18 19 -19 5z m30
-93 c17 -20 5 -45 -20 -45 -11 0 -23 7 -26 15 -6 15 11 45 26 45 4 0 13 -7 20
-15z"/>
<path d="M820 1012 c0 -5 9 -17 20 -27 11 -10 20 -26 20 -37 0 -10 5 -18 10
-18 16 0 12 20 -11 56 -19 32 -39 45 -39 26z"/>
<path d="M950 943 c10 -26 25 -49 34 -51 18 -4 22 14 4 20 -6 2 -17 19 -23 38
-6 19 -16 35 -22 37 -7 3 -4 -15 7 -44z"/>
</g>
</svg>
